HIERARCHY
ROOT Hips
{
 OFFSET 0.000000 0.000000 0.000000
 CHANNELS 6 Xposition Yposition Zposition Yrotation Xrotation Zrotation
 JOINT Chest
 {
  OFFSET 0.000000 10.080317 -0.001081
  CHANNELS 3 Yrotation Xrotation Zrotation
  JOINT Chest2
  {
   OFFSET 0.000000 11.096852 0.001963
   CHANNELS 3 Yrotation Xrotation Zrotation
   JOINT Chest3
   {
    OFFSET 0.000000 10.026525 0.000000
    CHANNELS 3 Yrotation Xrotation Zrotation
    JOINT Chest4
    {
     OFFSET 0.000000 10.026525 0.000000
     CHANNELS 3 Yrotation Xrotation Zrotation
     JOINT Neck
     {
      OFFSET 0.000000 14.108171 0.000000
      CHANNELS 3 Yrotation Xrotation Zrotation
      JOINT Head
      {
       OFFSET 0.000000 9.333493 0.004668
       CHANNELS 3 Yrotation Xrotation Zrotation
       End Site
       {
        OFFSET 0.000000 17.851786 0.002438
       }
      }
     }
     JOINT RightCollar
     {
      OFFSET -3.071622 7.873185 0.000000
      CHANNELS 3 Yrotation Xrotation Zrotation
      JOINT RightShoulder
      {
       OFFSET -14.378659 0.000000 0.000000
       CHANNELS 3 Yrotation Xrotation Zrotation
       JOINT RightElbow
       {
        OFFSET -30.778728 0.000000 0.000000
        CHANNELS 3 Yrotation Xrotation Zrotation
        JOINT RightWrist
        {
         OFFSET -25.164217 0.000000 0.000000
         CHANNELS 3 Yrotation Xrotation Zrotation
         End Site
         {
          OFFSET -18.796788 0.000000 0.000000
         }
        }
       }
      }
     }
     JOINT LeftCollar
     {
      OFFSET 3.071622 7.873185 0.000000
      CHANNELS 3 Yrotation Xrotation Zrotation
      JOINT LeftShoulder
      {
       OFFSET 14.378659 0.000000 0.000000
       CHANNELS 3 Yrotation Xrotation Zrotation
       JOINT LeftElbow
       {
        OFFSET 30.778728 0.000000 0.000000
        CHANNELS 3 Yrotation Xrotation Zrotation
        JOINT LeftWrist
        {
         OFFSET 25.164217 0.000000 0.000000
         CHANNELS 3 Yrotation Xrotation Zrotation
         End Site
         {
          OFFSET 18.796788 0.000000 0.000000
         }
        }
       }
      }
     }
    }
   }
  }
 }
 JOINT RightHip
 {
  OFFSET -8.194923 0.005295 0.000540
  CHANNELS 3 Yrotation Xrotation Zrotation
  JOINT RightKnee
  {
   OFFSET 0.000000 -42.473320 -0.000511
   CHANNELS 3 Yrotation Xrotation Zrotation
   JOINT RightAnkle
   {
    OFFSET 0.000000 -41.474259 -0.000865
    CHANNELS 3 Yrotation Xrotation Zrotation
    JOINT RightToe
    {
     OFFSET 0.000000 -7.354994 16.712725
     CHANNELS 3 Yrotation Xrotation Zrotation
     End Site
     {
      OFFSET 0.000000 -1.553903 6.764158
     }
    }
   }
  }
 }
 JOINT LeftHip
 {
  OFFSET 8.194923 0.005295 0.000540
  CHANNELS 3 Yrotation Xrotation Zrotation
  JOINT LeftKnee
  {
   OFFSET 0.000000 -42.473320 -0.000511
   CHANNELS 3 Yrotation Xrotation Zrotation
   JOINT LeftAnkle
   {
    OFFSET 0.000000 -41.474259 -0.000865
    CHANNELS 3 Yrotation Xrotation Zrotation
    JOINT LeftToe
    {
     OFFSET 0.000000 -7.354994 16.712725
     CHANNELS 3 Yrotation Xrotation Zrotation
     End Site
     {
      OFFSET 0.000000 -1.553903 6.764158
     }
    }
   }
  }
 }
}
MOTION
Frames: 12
Frame Time: 0.016667
10.720006 86.708817 -46.340395 -91.750109 -11.911708 0.024048 -1.550193 7.263094 -1.540710 -0.721611 3.161295 -0.506900 -0.721611 3.161295 -0.506900 -0.538447 2.371575 -0.376343 -0.958765 17.216652 1.464008 -2.278625 -4.171547 3.038179 -0.760638 -9.559144 7.769969 17.041553 -28.793117 55.777794 111.925292 -1.688316 27.185193 11.235133 4.325898 -29.326390 -33.053129 -10.281727 -10.665320 -21.532844 -62.959380 -48.630535 -49.682550 22.260891 -20.904803 -13.161854 2.499555 5.683871 0.401573 -21.345052 4.751198 9.636797 29.408268 -1.079766 13.687446 6.428583 4.409301 0.117806 0.157333 1.121308 8.014529 10.187979 3.358151 12.770350 34.697652 -9.366529 17.785512 -31.804310 3.546688 -0.280552 0.599276 0.643827
10.863177 86.667268 -46.289903 -91.171192 -12.031939 0.035769 -1.503619 7.473160 -1.476523 -0.702900 3.249677 -0.468543 -0.702900 3.249677 -0.468543 -0.524540 2.437802 -0.347572 -0.926407 17.201012 1.548590 -2.248496 -4.198919 3.183820 -1.160530 -9.755522 7.817109 16.955204 -28.628945 56.024754 111.656522 -2.141052 27.264880 11.020742 4.240042 -29.298909 -33.425024 -10.241163 -10.462699 -22.047881 -62.885895 -48.297055 -48.835162 22.405888 -20.636348 -13.151326 2.782715 5.651938 0.344445 -21.341986 4.473008 9.241714 29.509156 -1.153743 13.642607 6.356506 4.395466 0.118499 0.140931 0.975494 7.721655 10.066389 3.277822 12.450651 34.914843 -9.415056 17.794878 -31.905356 3.581318 -0.301031 0.608407 0.539714
10.983875 86.646259 -46.234144 -90.801388 -12.111694 0.054597 -1.500341 7.645378 -1.442942 -0.701037 3.323592 -0.449974 -0.701037 3.323592 -0.449974 -0.523181 2.493216 -0.333570 -0.806408 17.251155 1.702490 -2.078145 -4.105016 3.425423 -1.436558 -10.026295 7.808902 17.010840 -28.426412 56.032404 111.623457 -2.269560 27.220444 10.808795 4.245237 -29.093982 -33.679114 -10.156532 -10.290541 -21.841089 -63.041407 -48.469867 -48.399396 22.506972 -20.568108 -13.153977 2.830985 5.846983 0.244632 -21.322908 4.250932 9.020408 29.515079 -1.141918 13.642949 6.345995 4.357549 0.117587 0.124049 0.840529 7.425717 9.992037 3.164185 12.335091 35.015445 -9.428344 17.821463 -31.944800 3.581224 -0.285568 0.606302 0.469316
11.082455 86.642842 -46.187762 -90.685253 -12.135739 0.103641 -1.476245 7.773667 -1.446964 -0.685172 3.382540 -0.453230 -0.685172 3.382540 -0.453230 -0.511219 2.537418 -0.336028 -0.644079 17.363432 1.904863 -1.844020 -3.895859 3.740277 -1.695616 -10.357555 7.788138 17.142600 -28.228342 55.882706 111.622883 -2.358618 27.221570 10.660627 4.283191 -28.972208 -33.873083 -10.073611 -10.136437 -21.324596 -63.266456 -48.858447 -48.355906 22.683243 -20.655958 -13.213671 2.815896 6.093305 0.173233 -21.309108 4.098007 8.957430 29.428144 -1.087456 13.673721 6.392696 4.299376 0.119306 0.109802 0.726167 7.226816 9.950827 3.054091 12.395781 35.025791 -9.439304 17.818160 -31.915887 3.560217 -0.264530 0.567990 0.423339
11.156457 86.649462 -46.154400 -90.699656 -12.133221 0.190639 -1.460096 7.869180 -1.498969 -0.673730 3.425249 -0.475657 -0.673730 3.425249 -0.475657 -0.502479 2.569466 -0.352857 -0.434801 17.537934 2.122569 -1.526012 -3.572716 4.065782 -1.934510 -10.654898 7.748827 17.195664 -28.115084 55.695462 111.526051 -2.713132 27.399357 10.531469 4.286355 -28.879950 -34.009786 -9.936252 -9.967649 -20.659707 -63.502325 -49.316562 -48.554910 22.822209 -20.829983 -13.296209 2.813014 6.354064 0.095090 -21.297423 4.004326 9.031737 29.333660 -1.041654 13.640394 6.434757 4.224374 0.119607 0.098376 0.638652 7.097577 9.958865 2.928850 12.532392 34.945368 -9.448510 17.801023 -31.842595 3.521299 -0.246020 0.523252 0.396906
11.214316 86.655432 -46.145553 -90.805003 -12.066908 0.246904 -1.477860 7.901169 -1.541617 -0.668253 3.449825 -0.500491 -0.668253 3.449825 -0.500491 -0.498210 2.587921 -0.371479 -0.209445 17.735973 2.323348 -1.171479 -3.207365 4.354383 -2.136718 -10.910768 7.699725 17.263738 -27.990005 55.477517 111.364089 -3.279202 27.593370 10.251341 4.102538 -28.710843 -34.081699 -9.801166 -9.813495 -20.109489 -63.716789 -49.678507 -48.771993 22.902708 -21.039093 -13.307796 2.761443 6.597910 -0.112796 -21.328866 4.027148 9.211656 29.214237 -1.007301 13.767033 6.480207 4.143505 0.118955 0.095514 0.565998 6.984910 9.934189 2.846458 12.764035 34.847802 -9.448978 17.761607 -31.762437 3.457121 -0.231073 0.477468 0.382870
11.247814 86.661341 -46.141957 -90.925712 -11.994769 0.327667 -1.517675 7.929359 -1.617500 -0.678580 3.465618 -0.531211 -0.678580 3.465618 -0.531211 -0.505765 2.599809 -0.394435 0.022634 17.928594 2.497689 -0.795701 -2.853441 4.592735 -2.323597 -11.109591 7.646497 17.369261 -27.868025 55.320797 111.274814 -3.642364 27.718443 9.895061 3.968772 -28.395651 -34.132354 -9.663150 -9.612670 -19.982490 -63.819378 -49.717577 -48.849656 22.939208 -21.112701 -13.289395 2.734744 6.908528 -0.346585 -21.362155 4.040563 9.419686 29.124154 -0.954955 13.885847 6.494721 4.039907 0.116381 0.100179 0.501070 6.925735 9.924026 2.750220 12.943655 34.728903 -9.458552 17.768162 -31.692315 3.386122 -0.239760 0.448111 0.358609
11.259924 86.664411 -46.143220 -91.039731 -11.924684 0.365720 -1.579214 7.947084 -1.677068 -0.697073 3.477677 -0.549086 -0.697073 3.477677 -0.549086 -0.519517 2.608890 -0.407718 0.242201 18.102792 2.618050 -0.425614 -2.534990 4.737010 -2.527329 -11.234933 7.617939 17.541400 -27.761083 55.138630 111.340689 -3.701083 27.749366 9.458961 3.904004 -28.123495 -34.177771 -9.573078 -9.403157 -20.318608 -63.807640 -49.401775 -48.722663 23.016792 -20.982875 -13.258449 2.634935 7.372315 -0.532752 -21.399308 4.080843 9.644810 29.060944 -0.867414 13.898183 6.501052 3.936946 0.109425 0.094211 0.440773 6.952451 9.923976 2.714058 13.018330 34.606103 -9.469579 17.716815 -31.648663 3.349731 -0.254551 0.438890 0.325960
11.252720 86.664847 -46.144666 -91.122092 -11.878621 0.372642 -1.648942 7.994651 -1.691907 -0.727427 3.500453 -0.553269 -0.727427 3.500453 -0.553269 -0.542229 2.626005 -0.410652 0.466817 18.237112 2.681198 -0.028899 -2.292250 4.775902 -2.708241 -11.342869 7.556914 17.649393 -27.698900 55.005510 111.473427 -3.719489 27.727011 9.037297 3.972505 -27.792207 -34.265113 -9.558431 -9.197064 -20.826679 -63.791916 -48.977711 -48.442747 23.235154 -20.762497 -13.258013 2.648689 7.958785 -0.631890 -21.439042 4.119238 9.831827 29.063956 -0.763504 13.847064 6.479502 3.846460 0.098110 0.074677 0.382713 6.968919 9.932808 2.699374 13.048926 34.522265 -9.479564 17.749605 -31.633734 3.279115 -0.251814 0.429641 0.289763
11.248555 86.657730 -46.144741 -91.186242 -11.813534 0.354309 -1.722675 8.036888 -1.677104 -0.750052 3.531735 -0.539194 -0.750052 3.531735 -0.539194 -0.559242 2.649470 -0.399929 0.682980 18.340628 2.698659 0.365976 -2.107182 4.734809 -2.931555 -11.427088 7.507841 17.627391 -27.686094 54.981274 111.652907 -3.943336 27.780408 8.464034 3.931921 -27.443733 -34.399593 -9.606078 -9.008429 -21.353093 -63.856249 -48.557910 -48.067467 23.447408 -20.538037 -13.244819 2.557720 8.558388 -0.651555 -21.531838 4.141642 9.920761 29.109493 -0.660787 13.890393 6.456766 3.755706 0.092370 0.038391 0.345276 6.956985 9.895693 2.707048 13.108627 34.472939 -9.481721 17.764832 -31.635499 3.234472 -0.259407 0.432261 0.240552
11.231307 86.647422 -46.143431 -91.232004 -11.780709 0.314286 -1.774523 8.112971 -1.624464 -0.766625 3.572114 -0.516471 -0.766625 3.572114 -0.516471 -0.571760 2.679740 -0.382742 0.893299 18.433021 2.695677 0.756117 -1.942501 4.658816 -3.174408 -11.481891 7.449932 17.480289 -27.733552 55.092392 111.829647 -4.359962 27.845766 7.865531 3.944228 -27.044818 -34.550808 -9.676639 -8.802076 -21.854229 -63.929326 -48.178805 -47.644589 23.436755 -20.297287 -13.154572 2.473697 9.155429 -0.716240 -21.586745 4.193168 10.014577 29.177846 -0.550136 13.808614 6.414678 3.637461 0.085758 0.012069 0.308284 6.913490 9.880704 2.744665 13.183138 34.466603 -9.490219 17.754245 -31.650020 3.195223 -0.235599 0.424078 0.198640
11.211574 86.631218 -46.133878 -91.273207 -11.757116 0.296459 -1.808527 8.187145 -1.570216 -0.774136 3.614336 -0.491975 -0.774136 3.614336 -0.491975 -0.577497 2.711382 -0.364276 1.080336 18.523221 2.686284 1.105198 -1.780773 4.579240 -3.416052 -11.512710 7.410098 17.302383 -27.762580 55.251085 112.019848 -4.911138 27.838381 7.252225 3.901932 -26.580721 -34.706225 -9.805952 -8.618823 -22.300711 -64.007606 -47.917913 -47.188763 23.237609 -20.020860 -12.949895 2.343841 9.529130 -0.791283 -21.648750 4.238966 10.133634 29.286459 -0.469738 13.690293 6.340984 3.552325 0.078897 -0.005725 0.267528 6.806202 9.866988 2.735735 13.285959 34.475787 -9.498056 17.775794 -31.668574 3.169971 -0.227306 0.412876 0.151138
